<svg width="1920" height="576" viewBox="0 0 1920 576" fill="none" xmlns="http://www.w3.org/2000/svg">
<path d="M970.5 174.2C938.84 174.2 914.45 190.29 899.92 217.8C889.54 188.74 863.81 174.2 830.07 174.2C802.56 174.2 781.29 187.18 767.27 210.53V180.65H709.88V433.17H767.27V292.53C767.27 248.42 784.92 225.58 813.46 225.58C839.93 225.58 851.86 241.98 851.86 275.19V433.17H908.22L906.66 284.22C906.66 241.67 925.86 225.57 952.85 225.57C978.28 225.57 990.22 241.97 990.22 275.18V433.16H1048.13L1047.09 259.3C1047.09 202.75 1018.24 174.2 970.5 174.2Z" fill="#1A1A1A"/>
<path d="M1193.1 174.94C1136.17 174.94 1088.05 209.61 1091.15 272.23L1144.45 276.37C1141.86 243.77 1159.98 223.06 1194.65 223.06C1225.7 223.06 1243.81 239.62 1243.81 261.88V271.19L1185.85 281.02C1122.2 291.37 1090.63 318.28 1090.63 366.41C1090.63 403.67 1119.09 440.93 1176.02 440.93C1207.59 440.93 1231.91 425.41 1243.81 404.19V433.17H1297.11V264.98C1297.12 209.61 1259.85 174.94 1193.1 174.94ZM1243.81 327.6C1243.81 364.86 1220.52 389.7 1186.88 389.7C1161.53 389.7 1144.44 377.8 1144.44 359.68C1144.44 338.98 1163.07 329.66 1194.12 323.97L1243.8 315.69V327.6H1243.81Z" fill="#1A1A1A"/>
<path d="M1347.22 90.34V433.17H1404.14V90.34H1347.22Z" fill="#1A1A1A"/>
<path d="M1815.98 174.94C1759.05 174.94 1710.93 209.61 1714.03 272.23L1767.33 276.37C1764.74 243.77 1782.85 223.06 1817.53 223.06C1848.58 223.06 1866.69 239.62 1866.69 261.88V271.19L1808.73 281.02C1745.07 291.37 1713.51 318.28 1713.51 366.41C1713.51 403.67 1741.97 440.93 1798.9 440.93C1830.47 440.93 1854.79 425.41 1866.7 404.19V433.17H1920V264.98C1920 209.61 1882.74 174.94 1815.98 174.94ZM1866.7 327.6C1866.7 364.86 1843.41 389.7 1809.77 389.7C1784.41 389.7 1767.33 377.8 1767.33 359.68C1767.33 338.98 1785.96 329.66 1817.01 323.97L1866.69 315.69V327.6H1866.7Z" fill="#1A1A1A"/>
<path d="M1606.12 408.48H1516.61C1501.17 408.48 1491.8 400.1 1491.8 390.05C1491.8 378.32 1500.62 371.06 1514.96 371.06H1569.17C1622.66 371.06 1666.77 328.62 1666.77 275.57C1666.77 254.91 1660.71 238.15 1648.02 222.52L1695.33 224.82L1695.45 180.63H1636.45C1614.4 180.63 1599.51 177.99 1583.78 176.77C1576.1 175.56 1568 174.93 1559.55 174.93C1490.17 174.93 1452.27 213.44 1452.27 273.33C1452.27 301.25 1464.4 324.15 1484.81 343.14C1457.79 347.61 1439.04 369.95 1439.04 391.72C1439.04 407.91 1446.21 423.55 1461.65 433.04C1439.04 448.68 1429.12 469.9 1429.12 496.7C1429.12 543.05 1464.96 576 1531.68 576H1592.89C1652.45 576 1696.56 541.93 1696.56 488.88C1696.55 441.43 1661.26 408.48 1606.12 408.48ZM1559.25 220.69C1596.97 220.69 1609.98 245.82 1609.98 273.89C1609.98 301.96 1595.68 327.09 1559.25 327.09C1522.82 327.09 1508.52 301.96 1508.52 273.89C1508.52 245.83 1521.53 220.69 1559.25 220.69ZM1595.64 529.1H1532.23C1502.46 529.1 1487.56 512.91 1487.56 492.24C1487.56 476.04 1494.18 454.82 1529.47 454.82H1596.74C1622.66 454.82 1638.65 468.78 1638.65 490C1638.65 514.58 1621.56 529.1 1595.64 529.1Z" fill="#1A1A1A"/>
<path d="M348.58 446.8L348.58 262.98C348.58 217.5 311.71 180.63 266.23 180.63L82.4 180.63C36.92 180.63 0.0499862 217.5 0.0499842 262.98L0.0499762 446.81C0.0499742 492.29 36.9199 529.16 82.3999 529.16L266.23 529.16C311.71 529.15 348.58 492.28 348.58 446.8Z" fill="#39BFAD"/>
<path d="M348.58 90.29C348.58 40.4 308.13 -0.0500201 258.23 -0.0500223L90.39 -0.0500296C40.5 -0.0500318 0.0500165 40.4 0.0500144 90.29C0.0500122 140.18 40.5 180.63 90.39 180.63L258.23 180.63C308.13 180.63 348.58 140.19 348.58 90.29Z" fill="#E26BA7"/>
<path d="M529.16 258.13L529.16 90.29C529.16 40.4 488.71 -0.0500124 438.82 -0.0500146C388.93 -0.0500168 348.48 40.4 348.48 90.29L348.48 258.13C348.48 308.02 388.93 348.47 438.82 348.47C488.71 348.47 529.16 308.02 529.16 258.13Z" fill="#39BFAD"/>
<path d="M529.04 443.56C531.76 389.98 487.75 345.97 434.17 348.69C388.29 351.01 351.02 388.29 348.69 434.16C345.98 487.74 389.99 531.75 443.56 529.03C489.44 526.71 526.72 489.43 529.04 443.56Z" fill="#E26BA7"/>
</svg>
